<?xml version="1.0" encoding="iso-8859-1"?>
<!-- Generator: Adobe Illustrator 19.0.0, SVG Export Plug-In . SVG Version: 6.00 Build 0)  -->
<svg version="1.1" id="Capa_1" xmlns="http://www.w3.org/2000/svg" xmlns:xlink="http://www.w3.org/1999/xlink" x="0px" y="0px"
	 viewBox="0 0 512 512" style="enable-background:new 0 0 512 512;" xml:space="preserve">
<g>
	<g>
		<circle cx="382.933" cy="256" r="42.667"/>
	</g>
</g>
<g>
	<g>
		<path d="M254.933,0C118.4,0,7.467,106.667,1.067,243.2c0,4.267,0,8.533,0,12.8c0,140.8,113.067,256,253.867,256s256-115.2,256-256
			S395.733,0,254.933,0z M126.933,298.667c-23.467,0-42.667-19.2-42.667-42.667s19.2-42.667,42.667-42.667S169.6,232.533,169.6,256
			S150.4,298.667,126.933,298.667z M372.267,352c-53.333,0-96-42.667-96-96c0-76.8-61.867-138.667-138.667-138.667
			c-19.2,0-36.267,4.267-53.333,10.667c70.4-93.867,204.8-113.067,298.667-42.667c53.333,40.533,85.333,104.533,85.333,170.667
			C468.267,309.333,425.6,352,372.267,352z"/>
	</g>
</g>
</svg>
