<?xml version="1.0" encoding="utf-8"?>
<!-- Generator: Adobe Illustrator 24.1.1, SVG Export Plug-In . SVG Version: 6.00 Build 0)  -->
<svg version="1.1" xmlns="http://www.w3.org/2000/svg" xmlns:xlink="http://www.w3.org/1999/xlink" x="0px" y="0px"
	 viewBox="0 0 285.47 418.36" style="enable-background:new 0 0 285.47 418.36;" xml:space="preserve">
<style type="text/css">
	.st0{fill:#FFFFFF;}
	.st1{fill:#FFFFFF;}
	.st2{fill:#FFFFFF;}
</style>

<clipPath id="clipRect">
<rect x="10" y="10" width="100" height="500" stroke="red" stroke-width="5"/>
</clipPath>

<g clip-path="url(#clipRect)">
<g id="teeth">
	<path class="st0" d="M82.88,331.27c-0.11,5.51-1.31,12.14-1.45,18.34C78.12,346.21,74.28,328.3,82.88,331.27z"/>
	<path class="st0" d="M89.96,333.04c10.05-2.72,2.42,25.74-3.22,16.21C87.37,344.67,84.92,334.67,89.96,333.04z"/>
	<path class="st0" d="M106.34,339.77c4.25,13.92-8.95,24.77-7.06,4.52C96.22,334.67,107.62,331.04,106.34,339.77z"/>
	<path class="st0" d="M121.32,340.81c0.19,6.11,2.46,11.36-2.01,16.26C107.4,368.68,108.51,322.22,121.32,340.81z"/>
	<path class="st0" d="M128.27,338.55c3.85,0.28,13.56-1.66,12.26,4.36C140.58,374.3,120.07,354.86,128.27,338.55z"/>
	<path class="st0" d="M153.81,338.42c9.14-1.95,3.79,21.68-2.28,21.78C142.28,358.08,141.32,335.18,153.81,338.42z"/>
	<path class="st0" d="M164.45,337.93c4.06-0.55,9.93-3.06,9.18,3.68c-0.67,5.01,0.3,10.49-1.52,15.23
		C162.46,365.44,160.88,342.37,164.45,337.93z"/>
	<path class="st0" d="M185.89,344.55c2.01,6.19-3.92,17.19-7.75,7.04c0.61-5.04-0.26-11.39,0.41-15.75
		C186.76,332.43,185.22,339.76,185.89,344.55z"/>
	<path class="st0" d="M198.16,344.46c-1.06,15.83-9.6-3.08-8.19-9.77C197.69,328.46,198.03,338.15,198.16,344.46z"/>
	<path class="st0" d="M201.87,331.33c8.5-3.4,5.03,14.38,1.5,17.47C203.17,342.84,202.36,336.8,201.87,331.33z"/>
	<path class="st0" d="M201.68,305.85c4.29-11.44,8.74,7.63,7.86,12.19C206.54,329.32,203.66,309.15,201.68,305.85z"/>
	<path class="st0" d="M190.66,309.06c2.68-14.03,13.92,11.64,9.04,14.55c-4.72,1.4-4.97,1.33-6.08-3.29
		C192.96,316.47,191,312.92,190.66,309.06z"/>
	<path class="st0" d="M180.06,307.45c9.19,1.18,13.5,24.89,0.81,18.69C181.91,320.59,173.14,309.32,180.06,307.45z"/>
	<path class="st0" d="M164.53,308.87c10.75-4.03,17.28,24.39,2.06,20.55C163.93,326.05,161.72,313.14,164.53,308.87z"/>
	<path class="st0" d="M146.08,314.96c9.47-19.89,24.26,21.86,3.39,15.6C142.66,331.31,145.76,319.34,146.08,314.96z"/>
	<path class="st0" d="M138.72,314.9c0.12,5.61,6.43,17.31-3.48,15.76C114.37,336.47,129.6,295.16,138.72,314.9z"/>
	<path class="st0" d="M115.65,308.58c10.63-3.69,4.61,17.09,3.04,20.91C104.31,331.56,108.93,314.85,115.65,308.58z"/>
	<path class="st0" d="M104.18,307.46c7.95,1.02-1.22,12.92-0.13,18.31C91.94,332.91,95.16,309.54,104.18,307.46z"/>
	<path class="st0" d="M94.22,308.66c-1.69,4.59-1.5,14.04-5.64,15.63C76.46,326.77,91.57,294.07,94.22,308.66z"/>
	<path class="st0" d="M81.82,302.75c3.58,1.77-5.08,27.72-6.48,15.41C76.36,313.67,74.57,301,81.82,302.75z"/>
</g>
<g id="bottom">
	<path class="st1" d="M229.82,276.46c29.57-24.9,5.64,40.69,6.06,54.71c-5.48,23.43-28.3,36.63-42.7,54.36
		c-49.76,49.07-127.98-2.39-145-58.11c-1.88-17.47-23.81-79.82,8.34-47.3c3.44,24.87,11.13,48.76,19.91,71.8
		c4.6,3.05,13.16,6.94,18,2.41c2.36,7.24,8.99,6.36,14.07,5.23c5.77,11.32,14.38-3.73,18.6,3.18c6.01,6.64,11.92-1.77,16.36-1.93
		c4.41,6.52,13.73,5.17,17.22-1.61c3.52,5.43,11.76,6.77,15.35,0.78c4.8-0.75,11.34,3.04,13.95-4.91
		C223.38,359.25,223.33,300.97,229.82,276.46z"/>
</g>
<g id="top">
	<path class="st2" d="M142.32,13.98c67.33-6.66,131.61,43.98,129.92,113.8c-7.87,57.27-25.62,44.44-2.13,105.53
		c-5.94,36.49-61.18,14.14-61.68,61.62c-0.05,5.29-7.77-0.07-9.79,5.2c-3.84,1.37-8.99-2.8-11.6,3.39
		c-3.87,1.1-8.67-3.62-12.92,1.37c-5.35-0.98-9.51-4.23-14.08,1.71c-5.94-0.98-11.44-4.98-16.52,2.11c-5.21-0.27-10.09-8.47-16.97-2
		c-7.84-3.97-6.95-4.47-16.06-2.03c-3.68-5-9.66,0.55-12.9-1.39c-2.44-5.86-7.88-1.85-11.38-3.16c-1.82-5.16-8.79-0.28-10.14-3.55
		c-3.12-50.17-49.88-26.49-60.76-59.87c-2.57-9.32,1.23-18.21,6.75-25.66c18.05-31.86-17.54-62.87-8.58-96.37
		C18.73,49.99,80.15,8.54,142.32,13.98z M216.4,241.52c37.02-6.01,31.37-71.97-7.17-67.41C135.05,165.25,151.74,257.61,216.4,241.52
		z M140.3,282.28c8.66,0.67,26.54,13.82,26.79-4.86C144.01,167.09,87.89,317.21,140.3,282.28z M43.78,215.29
		c33.68,84.11,145.87-39.02,34.32-41.19C54.39,169.68,40.21,194.01,43.78,215.29z"/>
</g>
<g id="line">
	<g>
		<g id="XMLID_1_">
			<g>
				<path d="M141.33,0.95C235.8-10.8,317.47,88.67,273.01,176.23c-9.68,37.14,36.94,61.22-14.15,91.93
					c-5.64,29.26-3.53,62.66-20.45,88.18c-29.42,38.85-69.58,73.38-121.61,58.46c-33.69-10.07-60.07-42.95-78.07-71.9
					c-7.06-24.77-10.21-50.59-15.69-75.76c-40.05-28.79-12.09-47.43-9.25-81.77C-31.32,94.13,40.2-8.83,141.33,0.95z M272.24,127.77
					c1.69-69.82-62.59-120.45-129.92-113.8C80.15,8.54,18.73,49.99,13.47,114.68c-8.96,33.51,26.63,64.51,8.58,96.37
					c-5.52,7.45-9.32,16.34-6.75,25.66c10.89,33.38,57.64,9.7,60.76,59.87c1.35,3.27,8.32-1.61,10.14,3.55
					c3.5,1.31,8.95-2.7,11.38,3.16c3.24,1.94,9.22-3.61,12.9,1.39c9.11-2.44,8.22-1.94,16.06,2.03c6.88-6.47,11.76,1.72,16.97,2
					c5.08-7.09,10.58-3.09,16.52-2.11c4.57-5.94,8.73-2.69,14.08-1.71c4.25-4.99,9.06-0.27,12.92-1.37
					c2.61-6.19,7.76-2.02,11.6-3.39c2.02-5.27,9.74,0.1,9.79-5.2c0.49-47.49,55.74-25.13,61.68-61.62
					C246.63,172.21,264.37,185.05,272.24,127.77z M235.88,331.17c-0.42-14.02,23.51-79.61-6.06-54.71
					c-6.48,24.51-6.44,82.79-39.83,78.6c-2.61,7.95-9.15,4.16-13.95,4.91c-3.6,5.99-11.83,4.65-15.35-0.78
					c-3.49,6.78-12.81,8.13-17.22,1.61c-4.44,0.16-10.35,8.58-16.36,1.93c-4.22-6.91-12.82,8.13-18.6-3.18
					c-5.08,1.13-11.72,2.02-14.07-5.23c-4.84,4.53-13.4,0.64-18-2.41c-8.78-23.04-16.47-46.93-19.91-71.8
					c-32.15-32.53-10.21,29.83-8.34,47.3c17.02,55.72,95.24,107.18,145,58.11C207.58,367.8,230.4,354.6,235.88,331.17z
					 M209.54,318.04c0.88-4.56-3.57-23.63-7.86-12.19C203.66,309.15,206.54,329.32,209.54,318.04z M203.38,348.81
					c3.52-3.09,7-20.88-1.5-17.47C202.36,336.8,203.17,342.84,203.38,348.81z M199.7,323.61c4.88-2.92-6.36-28.58-9.04-14.55
					c0.34,3.87,2.3,7.42,2.96,11.26C194.72,324.94,194.97,325.01,199.7,323.61z M189.98,334.69c-1.41,6.69,7.12,25.59,8.19,9.77
					C198.03,338.15,197.69,328.46,189.98,334.69z M178.13,351.59c3.83,10.15,9.76-0.85,7.75-7.04c-0.66-4.79,0.87-12.12-7.35-8.71
					C177.88,340.2,178.74,346.54,178.13,351.59z M180.86,326.14c12.69,6.21,8.38-17.51-0.81-18.69
					C173.14,309.32,181.91,320.59,180.86,326.14z M173.62,341.61c0.75-6.74-5.12-4.23-9.18-3.68c-3.57,4.44-1.99,27.51,7.66,18.91
					C173.92,352.11,172.95,346.62,173.62,341.61z M166.58,329.42c15.23,3.84,8.7-24.57-2.06-20.55
					C161.72,313.14,163.93,326.05,166.58,329.42z M151.52,360.2c6.07-0.1,11.42-23.73,2.28-21.78
					C141.32,335.18,142.28,358.08,151.52,360.2z M149.47,330.57c20.87,6.26,6.08-35.5-3.39-15.6
					C145.76,319.34,142.66,331.31,149.47,330.57z M140.53,342.91c1.29-6.03-8.41-4.08-12.26-4.36
					C120.07,354.86,140.58,374.3,140.53,342.91z M135.25,330.66c9.9,1.54,3.6-10.15,3.48-15.76
					C129.6,295.16,114.37,336.47,135.25,330.66z M119.31,357.08c4.48-4.91,2.21-10.15,2.01-16.26
					C108.51,322.22,107.4,368.68,119.31,357.08z M118.69,329.49c1.57-3.82,7.59-24.6-3.04-20.91
					C108.93,314.85,104.31,331.56,118.69,329.49z M99.28,344.29c-1.89,20.26,11.32,9.4,7.06-4.52
					C107.62,331.04,96.22,334.67,99.28,344.29z M104.06,325.78c-1.1-5.4,8.07-17.3,0.13-18.31
					C95.16,309.54,91.94,332.91,104.06,325.78z M88.58,324.29c4.14-1.59,3.95-11.04,5.64-15.63
					C91.57,294.07,76.46,326.77,88.58,324.29z M86.73,349.25c5.64,9.53,13.27-18.93,3.22-16.21
					C84.92,334.67,87.37,344.67,86.73,349.25z M81.43,349.6c0.14-6.19,1.34-12.83,1.45-18.34C74.28,328.3,78.12,346.21,81.43,349.6z
					 M75.34,318.16c1.41,12.32,10.06-13.64,6.48-15.41C74.57,301,76.36,313.67,75.34,318.16z"/>
				<path d="M209.23,174.11c38.54-4.57,44.19,61.4,7.17,67.41C151.74,257.61,135.05,165.25,209.23,174.11z"/>
				<path d="M167.09,277.42c-0.25,18.68-18.13,5.53-26.79,4.86C87.89,317.21,144.01,167.09,167.09,277.42z"/>
				<path d="M78.1,174.1c111.55,2.17-0.65,125.3-34.32,41.19C40.21,194.01,54.39,169.68,78.1,174.1z"/>
			</g>
		</g>
	</g>
</g>
</g>
</svg>
